# xmcd CD database file
#
# Track frame offsets:
#	150
#	16178
#	31575
#
# Disc length: 631 seconds
#
# Revision: 5
# Processed by: cddbd v1.5.2PL0 Copyright (c) Steve Scherf et al.
# Submitted via: CDex 1.70beta2
#
DISCID=11027503
DTITLE=ザ・クロマニヨンズ - 紙飛行機
DYEAR=2007
DGENRE=Rock
TTITLE0=紙飛行機
TTITLE1=ワハハ
TTITLE2=チンパンマン
EXTD=YEAR: 2007
EXTT0=
EXTT1=
EXTT2=
PLAYORDER=
